<?xml version="1.0" encoding="UTF-8"?>
<svg width="100px" height="100px" viewBox="0 0 100 100" version="1.1" xmlns="http://www.w3.org/2000/svg" xmlns:xlink="http://www.w3.org/1999/xlink">
    <title>2024/Isotipo/Round</title>
    <g id="2024/05" stroke="none" stroke-width="1" fill="none" fill-rule="evenodd" stroke-linecap="round" stroke-linejoin="round">
        <g id="2024/Isotipo/Round" transform="translate(4.5455, 4.5455)" stroke="#FFFFFF" stroke-width="9.09090909">
            <circle id="Oval" cx="45.4545455" cy="45.4545455" r="45.4545455"></circle>
            <g id="Ying-Yang" transform="translate(18.1818, 18.1818)">
                <path d="M27.0093708,18.1780768 C22.1103977,18.0387137 18.1818182,14.0235959 18.1818182,9.09090909 C18.1818182,4.07013864 22.2519568,0 27.2727273,0 L27.7237317,0.00365376625 C42.5780259,0.244493508 54.5454545,12.361039 54.5454545,27.2727273 C54.5454545,30.4605418 53.9985226,33.5206136 52.9933766,36.3642246 C49.2498807,25.7711764 39.1475988,18.1818182 27.2727273,18.1818182 Z M27.5360837,36.3673777 C32.4350569,36.5067408 36.3636364,40.5218587 36.3636364,45.4545455 C36.3636364,50.4753159 32.2934977,54.5454545 27.2727273,54.5454545 L26.8217229,54.5418008 C11.9674286,54.300961 -3.55271368e-15,42.1844155 -3.55271368e-15,27.2727273 C-3.55271368e-15,24.0849127 0.546931974,21.024841 1.55207798,18.18123 C5.29557388,28.7742781 15.3978558,36.3636364 27.2727273,36.3636364 Z" id="YingYang"></path>
            </g>
            <g id="S" transform="translate(18.1818, 0)">
                <path d="M1.55218529,8.8817842e-16 C0.546970901,2.84369678 0,5.90387287 0,9.09180087 C0,24.1541122 11.8181818,36.3645281 27.2727273,36.3645281" id="Path" transform="translate(13.6364, 18.1823) scale(1, -1) translate(-13.6364, -18.1823)"></path>
                <path d="M28.8249126,54.5445628 C27.8196982,57.3882595 27.2727273,60.4484356 27.2727273,63.6363636 C27.2727273,78.698675 39.0909091,90.9090909 54.5454545,90.9090909" id="Path" transform="translate(40.9091, 72.7268) scale(-1, 1) translate(-40.9091, -72.7268)"></path>
            </g>
        </g>
    </g>
</svg>