<?xml version="1.0" encoding="UTF-8"?>
<svg width="1600px" height="1600px" viewBox="0 0 1600 1600" version="1.1" xmlns="http://www.w3.org/2000/svg" xmlns:xlink="http://www.w3.org/1999/xlink" style="background: #000000;">
    <title>Default</title>
    <g id="Default" stroke="none" stroke-width="1" fill="none" fill-rule="evenodd">
        <rect fill="#000000" x="0" y="0" width="1600" height="1600"></rect>
        <g id="Ratios"></g>
        <g id="Media" stroke="#FFFFFF" stroke-linecap="round" stroke-linejoin="round" stroke-width="129.090909">
            <g id="Icon" transform="translate(154.5455, 154.5455)">
                <circle id="Oval" cx="645.454545" cy="645.454545" r="645.454545"></circle>
                <g id="Ying-Yang" transform="translate(258.1818, 258.1818)">
                    <path d="M385.137973,258.164524 C314.827647,257.024549 258.181818,199.6729 258.181818,129.090909 C258.181818,57.7959687 315.977787,-5.68434189e-14 387.272727,-5.68434189e-14 L393.67699,0.0518834808 C604.607968,3.47180781 774.545455,175.526754 774.545455,387.272727 C774.545455,432.537648 766.779723,475.988784 752.507883,516.366513 C699.342734,365.94652 555.892628,258.181818 387.272727,258.181818 Z M389.407481,516.380931 C459.717807,517.520906 516.363636,574.872554 516.363636,645.454545 C516.363636,716.749486 458.567668,774.545455 387.272727,774.545455 L380.868465,774.493571 C169.937487,771.073647 5.68434189e-14,599.0187 5.68434189e-14,387.272727 C5.68434189e-14,342.007807 7.76573192,298.55667 22.0375717,258.178942 C75.2027202,408.598935 218.652826,516.363636 387.272727,516.363636 Z" id="YingYang"></path>
                </g>
                <g id="S" transform="translate(258.1818, 0)">
                    <path d="M22.0410311,0 C7.7669868,40.3804943 0,83.8349948 0,129.103572 C0,342.988394 167.818182,516.3763 387.272727,516.3763" id="Path" transform="translate(193.6364, 258.1881) scale(1, -1) translate(-193.6364, -258.1881)"></path>
                    <path d="M409.313758,774.532791 C395.039714,814.913286 387.272727,858.367786 387.272727,903.636364 C387.272727,1117.52118 555.090909,1290.90909 774.545455,1290.90909" id="Path" transform="translate(580.9091, 1032.7209) scale(-1, 1) translate(-580.9091, -1032.7209)"></path>
                </g>
            </g>
        </g>
    </g>
</svg>