<?xml version="1.0" encoding="UTF-8"?>
<svg width="1600px" height="1600px" viewBox="0 0 1600 1600" version="1.1" xmlns="http://www.w3.org/2000/svg" xmlns:xlink="http://www.w3.org/1999/xlink" style="background: #000000;">
    <title>Default</title>
    <g id="Default" stroke="none" stroke-width="1" fill="none" fill-rule="evenodd">
        <rect fill="#000000" x="0" y="0" width="1600" height="1600"></rect>
        <g id="Ratios"></g>
        <g id="Media" transform="translate(72.7273, 72.7273)" stroke="#FFFFFF" stroke-linecap="round" stroke-linejoin="round" stroke-width="145.454545">
            <g id="Isotipo">
                <circle id="Oval" cx="727.272727" cy="727.272727" r="727.272727"></circle>
                <g id="Ying-Yang" transform="translate(290.9091, 290.9091)">
                    <path d="M433.958279,290.889604 C354.735377,289.605126 290.909091,224.983549 290.909091,145.454545 C290.909091,65.1222182 356.031309,0 436.363636,0 C437.173665,0 437.982147,0.0066213938 438.789032,0.0198130089 L438.791759,0.00661346567 C678.671505,1.31360884 872.727273,196.176546 872.727273,436.363636 C872.727273,487.36636 863.977154,536.325384 847.896209,581.821413 C787.991924,412.33419 626.357956,290.909091 436.363636,290.909091 Z M438.768993,581.837669 C517.991896,583.122147 581.818182,647.743723 581.818182,727.272727 C581.818182,807.605055 516.695964,872.727273 436.363636,872.727273 C435.553608,872.727273 434.745125,872.720651 433.938241,872.70746 L433.935514,872.720659 C194.055768,871.413664 0,676.550727 0,436.363636 C0,385.360913 8.75011921,336.401889 24.8310633,290.905859 C84.7353492,460.393083 246.369317,581.818182 436.363636,581.818182 Z" id="YingYang"></path>
                </g>
                <g id="S" transform="translate(290.9091, 0)">
                    <path d="M24.8349646,0 C8.75153442,45.4991485 0,94.461966 0,145.468814 C0,386.465796 189.090909,581.83245 436.363636,581.83245" id="Path" transform="translate(218.1818, 290.9162) scale(1, -1) translate(-218.1818, -290.9162)"></path>
                    <path d="M461.198601,872.713004 C445.115171,918.212153 436.363636,967.17497 436.363636,1018.18182 C436.363636,1259.1788 625.454545,1454.54545 872.727273,1454.54545" id="Path" transform="translate(654.5455, 1163.6292) scale(-1, 1) translate(-654.5455, -1163.6292)"></path>
                </g>
            </g>
        </g>
    </g>
</svg>