<?xml version="1.0" encoding="UTF-8"?>
<svg width="1600px" height="1600px" viewBox="0 0 1600 1600" version="1.1" xmlns="http://www.w3.org/2000/svg" xmlns:xlink="http://www.w3.org/1999/xlink" style="background: #000000;">
    <title>Default</title>
    <g id="Default" stroke="none" stroke-width="1" fill="none" fill-rule="evenodd">
        <rect fill="#000000" x="0" y="0" width="1600" height="1600"></rect>
        <g id="Ratios"></g>
        <g id="Media" transform="translate(254.8879, 254.8879)" stroke="#FFFFFF" stroke-linecap="round" stroke-linejoin="round" stroke-width="109.022418">
            <g id="Icon">
                <circle id="Oval" cx="545.112088" cy="545.112088" r="545.112088"></circle>
                <g id="Ying-Yang" transform="translate(218.0448, 218.0448)">
                    <path d="M325.264368,218.030229 C265.884495,217.067475 218.044835,168.631722 218.044835,109.022418 C218.044835,48.810999 266.855834,-5.68434189e-14 327.067253,-5.68434189e-14 C327.676072,-5.68434189e-14 328.283726,0.00499041565 328.890175,0.0149325726 L328.892463,0.0049856923 C508.686894,0.987437311 654.134505,147.04179 654.134505,327.067253 C654.134505,365.29526 647.576043,401.991456 635.522918,436.092041 C590.622848,309.056448 469.473501,218.044835 327.067253,218.044835 Z M328.870138,436.104276 C388.25001,437.06703 436.08967,485.502783 436.08967,545.112088 C436.08967,605.323506 387.278671,654.134505 327.067253,654.134505 C326.458433,654.134505 325.85078,654.129515 325.24433,654.119573 L325.242043,654.12952 C145.447611,653.147068 5.68434189e-14,507.092715 5.68434189e-14,327.067253 C5.68434189e-14,288.839245 6.55846258,252.143049 18.6115869,218.042464 C63.5116571,345.078057 184.661004,436.08967 327.067253,436.08967 Z" id="YingYang"></path>
                </g>
                <g id="S" transform="translate(218.0448, 0)">
                    <path d="M18.6145292,7.81597009e-14 C6.5595299,34.1029367 -5.68434189e-14,70.8019943 -5.68434189e-14,109.033112 C-5.68434189e-14,289.667368 141.729143,436.100365 327.067253,436.100365" id="Path" transform="translate(163.5336, 218.0502) scale(1, -1) translate(-163.5336, -218.0502)"></path>
                    <path d="M345.681782,654.123811 C333.626783,688.226747 327.067253,724.925805 327.067253,763.156923 C327.067253,943.791179 468.796395,1090.22418 654.134505,1090.22418" id="Path" transform="translate(490.6009, 872.174) scale(-1, 1) translate(-490.6009, -872.174)"></path>
                </g>
            </g>
        </g>
    </g>
</svg>