<?xml version="1.0" encoding="UTF-8"?>
<svg width="1600px" height="1600px" viewBox="0 0 1600 1600" version="1.1" xmlns="http://www.w3.org/2000/svg" xmlns:xlink="http://www.w3.org/1999/xlink" style="background: #000000;">
    <title>Default</title>
    <g id="Default" stroke="none" stroke-width="1" fill="none" fill-rule="evenodd">
        <rect fill="#000000" x="0" y="0" width="1600" height="1600"></rect>
        <g id="Ratios"></g>
        <g id="Media" transform="translate(272.7273, 272.7273)" stroke="#FFFFFF" stroke-linecap="round" stroke-linejoin="round" stroke-width="105.454545">
            <g id="Icon">
                <circle id="Oval" cx="527.272727" cy="527.272727" r="527.272727"></circle>
                <g id="Ying-Yang" transform="translate(210.9091, 210.9091)">
                    <path d="M314.619753,210.894963 C257.183148,209.963716 210.909091,163.113073 210.909091,105.454545 C210.909091,47.2136082 258.122699,0 316.363636,0 L321.595288,0.0423836885 C493.905101,2.83612469 632.727273,143.388053 632.727273,316.363636 C632.727273,353.340826 626.383362,388.836316 614.724548,421.8211 C571.294236,298.942356 454.109572,210.909091 316.363636,210.909091 Z M318.10752,421.83231 C375.544124,422.763557 421.818182,469.614199 421.818182,527.272727 C421.818182,585.513665 374.604574,632.727273 316.363636,632.727273 L311.131985,632.684889 C138.822172,629.891148 0,489.33922 0,316.363636 C0,279.386447 6.34391026,243.890956 18.0027244,210.906172 C61.4330364,333.784916 178.617701,421.818182 316.363636,421.818182 Z" id="YingYang"></path>
                </g>
                <g id="S" transform="translate(210.9091, 0)">
                    <path d="M18.0053493,-7.10542736e-15 C6.34486245,32.9868826 0,68.4849253 0,105.46489 C0,280.187702 137.090909,421.828526 316.363636,421.828526" id="Path" transform="translate(158.1818, 210.9143) scale(1, -1) translate(-158.1818, -210.9143)"></path>
                    <path d="M334.368986,632.716928 C322.708499,665.703811 316.363636,701.201853 316.363636,738.181818 C316.363636,912.90463 453.454545,1054.54545 632.727273,1054.54545" id="Path" transform="translate(474.5455, 843.6312) scale(-1, 1) translate(-474.5455, -843.6312)"></path>
                </g>
            </g>
        </g>
    </g>
</svg>