<?xml version="1.0" encoding="UTF-8"?>
<svg width="1600px" height="840px" viewBox="0 0 1600 840" version="1.1" xmlns="http://www.w3.org/2000/svg" xmlns:xlink="http://www.w3.org/1999/xlink">
    <title>1.91:1</title>
    <g id="Default" stroke="none" stroke-width="1" fill="none" fill-rule="evenodd">
        <g transform="translate(0, -380)">
            <rect fill="#000000" x="0" y="0" width="1600" height="1600"></rect>
            <g id="Ratios"></g>
            <g id="Media" transform="translate(546.3146, 546.3146)" stroke="#FFFFFF" stroke-linecap="round" stroke-linejoin="round" stroke-width="50.7375">
                <g id="Semantyk" transform="translate(0, -0)">
                    <g id="Isotipo" transform="translate(-0, 0)">
                        <circle id="Oval" cx="253.6875" cy="253.6875" r="253.6875"></circle>
                        <g id="Ying-Yang" transform="translate(101.475, 101.475)">
                            <path d="M151.373463,101.468203 C123.738905,101.02015 101.475,78.478832 101.475,50.7375 C101.475,22.7159525 124.190953,2.84217094e-14 152.2125,2.84217094e-14 C152.505788,2.84217094e-14 152.798494,0.002488482 153.0906,0.00744548358 C236.751751,0.475631253 304.425,68.4410985 304.425,152.2125 C304.425,170.00356 301.372687,187.081715 295.763161,202.951861 C274.867723,143.830642 218.486457,101.475 152.2125,101.475 Z M153.051537,202.956797 C180.686095,203.40485 202.95,225.946168 202.95,253.6875 C202.95,281.709047 180.234047,304.425 152.2125,304.425 C151.919212,304.425 151.626506,304.422512 151.3344,304.417555 C67.6732492,303.949369 -2.84217094e-14,235.983901 -2.84217094e-14,152.2125 C-2.84217094e-14,134.42144 3.05231345,117.343285 8.66183875,101.473139 C29.5572766,160.594358 85.9385432,202.95 152.2125,202.95 Z" id="YingYang"></path>
                        </g>
                        <g id="S" transform="translate(101.475, -0)">
                            <path d="M8.6629401,2.13162821e-14 C3.05271297,15.8710272 4.26325641e-14,32.9502525 4.26325641e-14,50.7424771 C4.26325641e-14,134.80712 65.95875,202.954977 152.2125,202.954977" id="Path" transform="translate(76.1062, 101.4775) scale(1, -1) translate(-76.1062, -101.4775)"></path>
                            <path d="M160.87544,304.420023 C155.265213,320.29105 152.2125,337.370275 152.2125,355.1625 C152.2125,439.227142 218.17125,507.375 304.425,507.375" id="Path" transform="translate(228.3187, 405.8975) scale(-1, 1) translate(-228.3187, -405.8975)"></path>
                        </g>
                    </g>
                </g>
            </g>
        </g>
    </g>
</svg>