<?xml version="1.0" encoding="UTF-8"?>
<svg width="1600px" height="840px" viewBox="0 0 1600 840" version="1.1" xmlns="http://www.w3.org/2000/svg" xmlns:xlink="http://www.w3.org/1999/xlink" style="background: #FFFFFF;">
    <title>1.91:1</title>
    <g id="Default" stroke="none" stroke-width="1" fill="none" fill-rule="evenodd">
        <g transform="translate(0, -380)">
            <g id="Ratios">
                <g id="Specific"></g>
                <g id="Default"></g>
            </g>
            <g id="Media" transform="translate(564.5909, 564.5909)" stroke="#000000" stroke-linecap="round" stroke-linejoin="round" stroke-width="47.1818182">
                <g id="Semantyk" transform="translate(0, 0)">
                    <g id="Isotipo" transform="translate(0, -0)">
                        <circle id="Oval" cx="235.909091" cy="235.909091" r="235.909091"></circle>
                        <g id="Ying-Yang" transform="translate(94.3636, 94.3636)">
                            <path d="M140.765217,94.3573153 C115.067288,93.9406626 94.3636364,72.9790388 94.3636364,47.1818182 C94.3636364,21.1240195 115.487656,-2.84217094e-14 141.545455,-2.84217094e-14 C141.806033,-2.84217094e-14 142.066117,0.00211240195 142.325692,0.00632101562 L143.886167,0.0189630469 C220.979954,1.26892131 283.090909,64.1537926 283.090909,141.545455 C283.090909,158.089597 280.252543,173.970804 275.036206,188.72868 C255.605256,133.751185 203.175083,94.3636364 141.545455,94.3636364 Z M142.325692,188.733594 C168.023621,189.150246 188.727273,210.11187 188.727273,235.909091 C188.727273,261.96689 167.603253,283.090909 141.545455,283.090909 C141.284877,283.090909 141.024792,283.088797 140.765217,283.084588 L139.204742,283.071946 C62.1109546,281.821988 -2.84217094e-14,218.937117 -2.84217094e-14,141.545455 C-2.84217094e-14,125.001312 2.83836593,109.120105 8.05470299,94.3622293 C27.4856535,149.339724 79.9158266,188.727273 141.545455,188.727273 Z" id="YingYang"></path>
                        </g>
                        <g id="S" transform="translate(94.3636, 0)">
                            <path d="M8.05584163,3.90798505e-14 C2.83877898,14.7587863 0,30.6411002 0,47.1864465 C0,125.359842 61.3363636,188.731901 141.545455,188.731901" id="Path" transform="translate(70.7727, 94.366) scale(1, -1) translate(-70.7727, -94.366)"></path>
                            <path d="M149.601296,283.086281 C144.384234,297.845067 141.545455,313.727381 141.545455,330.272727 C141.545455,408.446123 202.881818,471.818182 283.090909,471.818182" id="Path" transform="translate(212.3182, 377.4522) scale(-1, 1) translate(-212.3182, -377.4522)"></path>
                        </g>
                    </g>
                </g>
            </g>
        </g>
    </g>
</svg>